<?xml version="1.0" encoding="utf-8"?>
<!-- Generator: Adobe Illustrator 23.0.1, SVG Export Plug-In . SVG Version: 6.00 Build 0)  -->
<svg version="1.1" id="Layer_1" xmlns="http://www.w3.org/2000/svg" xmlns:xlink="http://www.w3.org/1999/xlink" x="0px" y="0px"
	 viewBox="0 0 504.7 138.1" style="enable-background:new 0 0 504.7 138.1;" xml:space="preserve">
<style type="text/css">
	.st0{clip-path:url(#SVGID_2_);}
	.st1{clip-path:url(#SVGID_4_);}
	.st2{fill:none;}
	.st3{clip-path:url(#SVGID_6_);}
	.st4{clip-path:url(#SVGID_8_);}
	.st5{clip-path:url(#SVGID_10_);}
	.st6{clip-path:url(#SVGID_12_);}
	.st7{clip-path:url(#SVGID_14_);}
	.st8{clip-path:url(#SVGID_16_);}
	.st9{clip-path:url(#SVGID_18_);}
	.st10{fill:none;stroke:#000000;stroke-width:2;stroke-miterlimit:10;}
</style>
<g>
	<g>
		<path d="M31.9,31.7h9.5c2.2,0,3.8,0.5,5.1,1.6c1.3,1.1,1.9,2.5,1.9,4.4c0,1.9-0.7,3.3-2,4.5c-1.3,1.1-3.1,1.7-5.3,1.7h-6.4v7.8
			h-2.7V31.7z M34.7,41.5H41c1.4,0,2.5-0.3,3.3-1s1.2-1.6,1.2-2.8c0-1.2-0.4-2.1-1.2-2.7s-1.9-1-3.3-1h-6.4V41.5z"/>
		<path d="M68.6,51.6h-3.2l-5.2-8.2h-6v8.2h-2.7V31.7h9.7c1.3,0,2.4,0.2,3.3,0.5c0.9,0.3,1.6,0.8,2.1,1.4c0.5,0.6,0.8,1.2,1.1,1.8
			c0.2,0.7,0.3,1.3,0.3,2.1c0,1.3-0.4,2.4-1.2,3.5c-0.8,1-2,1.7-3.6,2.1L68.6,51.6z M60.8,34h-6.6v7.1h6.5c1.5,0,2.6-0.3,3.3-1
			s1-1.5,1-2.6s-0.3-1.9-1-2.5C63.4,34.3,62.3,34,60.8,34z"/>
		<path d="M73.9,51.6H71l9.1-19.9h2.8l9.1,19.9H89l-2.3-5.2H76.1L73.9,51.6z M80.8,35.8l-3.6,8.3h8.7l-3.6-8.3
			c-0.4-0.9-0.6-1.5-0.7-1.7h-0.1C81.3,34.5,81.1,35,80.8,35.8z"/>
		<path d="M97.6,51.6h-2.5V31.7h4l6.4,15.4c0.3,0.8,0.5,1.3,0.6,1.7h0.1c0.1-0.3,0.3-0.9,0.6-1.7l6.5-15.4h4.1v19.9h-2.5V36
			c0-1,0-1.7,0.1-2h-0.1c-0.4,1.2-0.6,1.8-0.7,2l-6.6,15.6h-2.7L98.3,36c-0.2-0.4-0.4-1.1-0.6-2h-0.1c0.1,0.5,0.1,1.2,0.1,2
			L97.6,51.6L97.6,51.6z"/>
		<path d="M125.5,34v6.2h11.8v2.3h-11.8v6.8H138v2.3h-15.2V31.7h15V34H125.5z"/>
		<path d="M144.8,51.6h-2.5V31.7h3.3l11,14.7c0.6,0.9,1,1.6,1.3,2.3h0.1c0-0.5,0-1.3,0-2.5V31.7h2.5v19.9h-3.2L146,36.7
			c-0.6-0.9-1.1-1.6-1.3-2.2h-0.1c0,0.5,0,1.3,0,2.4V51.6z"/>
		<path d="M182.8,31.7L174.4,44v7.6h-2.8V44l-8.3-12.3h3.2l5.9,8.9c0.3,0.5,0.5,0.8,0.5,1.1h0.1c0.1-0.3,0.3-0.6,0.5-1.1l6-8.9
			C179.6,31.7,182.8,31.7,182.8,31.7z"/>
		<path d="M239.8,51.6h-3.4l-7.5-10.3l-4.6,4.2v6.2h-2.7V31.7h2.7v10.5l11.1-10.5h3.6l-8.1,7.6L239.8,51.6z"/>
		<path d="M260.3,51.6h-3.2l-5.2-8.2h-6v8.2h-2.7V31.7h9.7c1.3,0,2.4,0.2,3.3,0.5c0.9,0.3,1.6,0.8,2.1,1.4c0.5,0.6,0.8,1.2,1.1,1.8
			c0.2,0.7,0.3,1.3,0.3,2.1c0,1.3-0.4,2.4-1.1,3.5s-2,1.7-3.6,2.1L260.3,51.6z M252.4,34h-6.6v7.1h6.6c1.5,0,2.6-0.3,3.3-1
			c0.7-0.7,1-1.5,1-2.6s-0.3-1.9-1-2.5S253.9,34,252.4,34z"/>
		<path d="M282.1,51.6h-3.4l-7.5-10.3l-4.6,4.2v6.2h-2.7V31.7h2.7v10.5l11.1-10.5h3.6l-8.1,7.6L282.1,51.6z"/>
		<path d="M301.4,49.3c-2,1.9-4.6,2.9-7.8,2.9c-3.2,0-5.8-1-7.8-2.9c-2-1.9-3-4.5-3-7.6c0-3.2,1-5.7,3-7.6c2-1.9,4.6-2.9,7.8-2.9
			c3.2,0,5.8,1,7.8,2.9c2,1.9,3,4.5,3,7.6C304.3,44.8,303.3,47.4,301.4,49.3z M287.8,47.6c1.4,1.5,3.4,2.2,5.8,2.2
			c2.4,0,4.3-0.7,5.7-2.2s2.1-3.5,2.1-6s-0.7-4.5-2.1-6s-3.3-2.2-5.7-2.2c-2.4,0-4.4,0.7-5.8,2.2s-2.1,3.5-2.1,6
			C285.7,44.1,286.4,46.1,287.8,47.6z"/>
		<path d="M310.9,51.6h-2.5V31.7h3.3l11,14.7c0.6,0.9,1,1.6,1.3,2.3h0.1c0-0.5,0-1.3,0-2.5V31.7h2.5v19.9h-3.2l-11.2-14.9
			c-0.6-0.9-1-1.6-1.3-2.2h-0.1c0,0.5,0,1.3,0,2.4L310.9,51.6L310.9,51.6z"/>
		<path d="M349.1,49.3c-2,1.9-4.6,2.9-7.8,2.9s-5.8-1-7.8-2.9c-2-1.9-3-4.5-3-7.6c0-3.2,1-5.7,3-7.6s4.6-2.9,7.8-2.9
			c3.2,0,5.8,1,7.8,2.9s3,4.5,3,7.6C352.1,44.8,351.1,47.4,349.1,49.3z M335.6,47.6c1.4,1.5,3.4,2.2,5.8,2.2s4.3-0.7,5.7-2.2
			c1.4-1.5,2.1-3.5,2.1-6s-0.7-4.5-2.1-6c-1.4-1.5-3.3-2.2-5.7-2.2c-2.4,0-4.4,0.7-5.8,2.2c-1.4,1.5-2.1,3.5-2.1,6
			C333.4,44.1,334.1,46.1,335.6,47.6z"/>
		<path d="M364.3,52.1c-2.9,0-5.1-0.6-6.8-1.7c-1.6-1.2-2.6-2.8-3-4.9l2.8-0.5c0.8,3.2,3.1,4.8,7.1,4.8c3.7,0,5.5-1.2,5.5-3.5
			c0-1.1-0.4-1.9-1-2.4c-0.7-0.5-1.8-0.9-3.3-1.1l-4.4-0.6c-3.8-0.6-5.7-2.4-5.7-5.5c0-1.8,0.7-3.2,2.2-4.2c1.5-1,3.4-1.5,6-1.5
			c5.2,0,8.2,1.9,9,5.8l-2.7,0.7c-0.3-1.4-1-2.5-2-3.2c-1-0.7-2.4-1.1-4.3-1.1c-1.6,0-2.9,0.3-3.9,0.9c-0.9,0.6-1.4,1.4-1.4,2.4
			c0,1,0.3,1.7,0.9,2.2c0.6,0.5,1.6,0.9,3,1.1l4.3,0.6c2,0.3,3.6,0.9,4.6,1.8s1.5,2.1,1.5,3.8c0,1.8-0.7,3.3-2.1,4.3
			C369.1,51.6,367,52.1,364.3,52.1z M366,27.4h2.7l-3.4,3h-3l-3.4-3h2.7l2.2,2L366,27.4z"/>
	</g>
	<g>
		<path d="M49.1,108.8h-3.2l-5.2-8.2h-6v8.2h-2.7V88.9h9.7c1.3,0,2.4,0.2,3.3,0.5s1.6,0.8,2.1,1.4c0.5,0.6,0.8,1.2,1.1,1.8
			c0.2,0.7,0.3,1.3,0.3,2.1c0,1.3-0.4,2.4-1.2,3.5s-2,1.7-3.6,2.1L49.1,108.8z M41.2,91.2h-6.6v7.1h6.5c1.5,0,2.6-0.3,3.3-1
			s1-1.5,1-2.6c0-1.1-0.3-1.9-1-2.6C43.8,91.5,42.7,91.2,41.2,91.2z"/>
		<path d="M52.8,88.9h2.7v19.9h-2.7V88.9z"/>
		<path d="M63.7,91.2v6.2h11.8v2.3H63.7v6.8h12.5v2.3H61V88.9h15v2.3L63.7,91.2L63.7,91.2z"/>
		<path d="M88.3,109.4c-2.9,0-5.1-0.6-6.8-1.7c-1.6-1.2-2.6-2.8-3.1-4.9l2.8-0.5c0.8,3.2,3.1,4.8,7.1,4.8c3.7,0,5.5-1.2,5.5-3.5
			c0-1.1-0.3-1.9-1.1-2.4c-0.7-0.5-1.8-0.9-3.3-1.1l-4.4-0.6c-3.8-0.6-5.7-2.4-5.7-5.5c0-1.8,0.7-3.2,2.2-4.2c1.4-1,3.4-1.5,6-1.5
			c5.2,0,8.2,1.9,9,5.8l-2.7,0.7c-0.3-1.4-1-2.5-2-3.2s-2.4-1.1-4.3-1.1c-1.6,0-2.9,0.3-3.9,0.9s-1.4,1.4-1.4,2.4
			c0,1,0.3,1.7,0.9,2.2s1.6,0.9,3,1.1l4.3,0.6c2.1,0.3,3.6,0.9,4.6,1.8c1,0.9,1.6,2.1,1.6,3.8c0,1.8-0.7,3.3-2.1,4.3
			C93.2,108.8,91.1,109.4,88.3,109.4z"/>
		<path d="M103.7,91.2v6.2h11.8v2.3h-11.8v6.8h12.5v2.3h-15.2V88.9h15v2.3L103.7,91.2L103.7,91.2z"/>
		<path d="M122.9,108.8h-2.5V88.9h3.3l11,14.7c0.6,0.9,1,1.6,1.3,2.3h0.1c0-0.5,0-1.3,0-2.5V88.9h2.5v19.9h-3.2l-11.2-14.9
			c-0.6-0.9-1.1-1.6-1.3-2.2h-0.1c0,0.5,0,1.3,0,2.4C122.9,94.2,122.9,108.8,122.9,108.8z"/>
		<path d="M152.8,109.4c-3.1,0-5.6-1-7.5-2.9s-2.8-4.5-2.8-7.6c0-3.2,1-5.7,2.9-7.6c1.9-1.9,4.5-2.9,7.9-2.9c2.6,0,4.8,0.6,6.4,1.8
			c1.6,1.2,2.6,2.7,3,4.4l-2.8,0.4c-0.3-1.2-1.1-2.2-2.2-3.1s-2.7-1.3-4.5-1.3c-2.4,0-4.3,0.8-5.7,2.3c-1.4,1.5-2.1,3.5-2.1,6
			c0,2.4,0.7,4.4,2.1,5.9c1.4,1.5,3.3,2.3,5.8,2.3c1.3,0,2.4-0.2,3.3-0.6s1.7-0.9,2.3-1.5c0.5-0.6,0.9-1.3,1.2-2s0.4-1.4,0.4-2.1
			v-0.3h-7.3v-2.3h9.7v10.4h-2l-0.3-3.4c-0.6,1.2-1.7,2.2-3,2.9C156.1,109,154.6,109.4,152.8,109.4z"/>
		<path d="M170.5,91.2v6.2h11.8v2.3h-11.8v6.8H183v2.3h-15.2V88.9h15v2.3L170.5,91.2L170.5,91.2z"/>
		<path d="M200.2,98.5c1.3,0.2,2.3,0.8,3,1.6s1,1.9,1,3.2c0,1.6-0.6,2.9-1.6,3.9c-1.1,1.1-2.8,1.6-5.1,1.6h-10.1V88.9h9.8
			c1.2,0,2.3,0.2,3.2,0.5s1.6,0.7,2.1,1.3c0.5,0.5,0.8,1.1,1.1,1.7s0.3,1.2,0.3,1.9c0,1-0.3,1.9-0.9,2.7
			C202.2,97.7,201.3,98.2,200.2,98.5z M196.9,91.2H190v6.3h6.9c2.7,0,4-1.1,4-3.2c0-0.9-0.3-1.6-0.9-2.2
			C199.4,91.5,198.3,91.2,196.9,91.2z M190,106.5h7.2c1.5,0,2.6-0.3,3.2-0.9c0.7-0.6,1-1.4,1-2.5c0-2.2-1.4-3.3-4.1-3.3H190V106.5z"
			/>
		<path d="M208.6,88.9h2.7v19.9h-2.7V88.9z"/>
		<path d="M233.9,108.8h-3.2l-5.2-8.2h-6v8.2h-2.7V88.9h9.7c1.3,0,2.4,0.2,3.3,0.5s1.6,0.8,2.1,1.4s0.8,1.2,1.1,1.8
			c0.2,0.7,0.3,1.3,0.3,2.1c0,1.3-0.4,2.4-1.1,3.5c-0.8,1-2,1.7-3.6,2.1L233.9,108.8z M226.1,91.2h-6.6v7.1h6.6c1.5,0,2.6-0.3,3.3-1
			s1-1.5,1-2.6c0-1.1-0.3-1.9-1-2.6C228.7,91.5,227.6,91.2,226.1,91.2z"/>
		<path d="M246.3,109.4c-3.1,0-5.6-1-7.5-2.9s-2.8-4.5-2.8-7.6c0-3.2,1-5.7,2.9-7.6c1.9-1.9,4.5-2.9,7.9-2.9c2.6,0,4.8,0.6,6.4,1.8
			c1.6,1.2,2.6,2.7,3,4.4l-2.8,0.4c-0.3-1.2-1.1-2.2-2.2-3.1s-2.7-1.3-4.5-1.3c-2.4,0-4.3,0.8-5.7,2.3s-2.1,3.5-2.1,6
			c0,2.4,0.7,4.4,2.1,5.9c1.4,1.5,3.3,2.3,5.8,2.3c1.3,0,2.4-0.2,3.3-0.6s1.7-0.9,2.3-1.5c0.5-0.6,0.9-1.3,1.2-2s0.4-1.4,0.4-2.1
			v-0.3h-7.3v-2.3h9.7v10.4h-2l-0.3-3.4c-0.6,1.2-1.7,2.2-3,2.9C249.7,109,248.1,109.4,246.3,109.4z"/>
		<path d="M269.3,109.4c-2.9,0-5.1-0.6-6.8-1.7c-1.6-1.2-2.6-2.8-3-4.9l2.8-0.5c0.8,3.2,3.1,4.8,7,4.8c3.7,0,5.5-1.2,5.5-3.5
			c0-1.1-0.4-1.9-1-2.4c-0.7-0.5-1.8-0.9-3.3-1.1l-4.4-0.6c-3.8-0.6-5.7-2.4-5.7-5.5c0-1.8,0.7-3.2,2.2-4.2c1.5-1,3.4-1.5,6-1.5
			c5.2,0,8.2,1.9,9,5.8l-2.7,0.7c-0.3-1.4-1-2.5-2-3.2s-2.4-1.1-4.3-1.1c-1.6,0-2.9,0.3-3.9,0.9s-1.4,1.4-1.4,2.4
			c0,1,0.3,1.7,0.9,2.2c0.6,0.5,1.6,0.9,3,1.1l4.3,0.6c2,0.3,3.6,0.9,4.6,1.8c1,0.9,1.5,2.1,1.5,3.8c0,1.8-0.7,3.3-2.1,4.3
			S272.1,109.4,269.3,109.4z"/>
		<path d="M295.5,108.6c0.9,1.1,2.1,1.7,3.7,1.7c0.6,0,1.2-0.1,1.8-0.2v2.4c-0.7,0.1-1.4,0.2-2,0.2c-1.3,0-2.5-0.3-3.5-0.9
			s-1.9-1.4-2.4-2.6c-0.7,0.1-1.4,0.1-2,0.1c-3.2,0-5.8-1-7.8-2.9s-3-4.5-3-7.6c0-3.2,1-5.7,3-7.6s4.6-2.9,7.8-2.9
			c3.2,0,5.8,0.9,7.8,2.9c2,1.9,3,4.4,3,7.6c0,2.4-0.6,4.4-1.7,6.1C299.1,106.7,297.5,107.9,295.5,108.6z M283.2,98.9
			c0,2.5,0.7,4.5,2.1,6c1.4,1.5,3.4,2.2,5.8,2.2c2.4,0,4.3-0.7,5.7-2.2c1.4-1.5,2.1-3.5,2.1-6s-0.7-4.5-2.1-6
			c-1.4-1.5-3.3-2.2-5.7-2.2c-2.4,0-4.4,0.7-5.8,2.2C284,94.4,283.2,96.4,283.2,98.9z"/>
		<path d="M305.6,100.9v-12h2.7v11.9c0,1.8,0.6,3.3,1.7,4.5c1.1,1.2,2.7,1.7,4.7,1.7s3.5-0.6,4.7-1.7s1.7-2.6,1.7-4.5V88.9h2.8v12
			c0,2.5-0.8,4.6-2.4,6.1c-1.6,1.6-3.9,2.3-6.7,2.3c-2.9,0-5.1-0.8-6.7-2.3C306.4,105.5,305.6,103.4,305.6,100.9z"/>
		<path d="M331.6,91.2v6.2h11.8v2.3h-11.8v6.8h12.5v2.3h-15.2V88.9h15v2.3L331.6,91.2L331.6,91.2z"/>
		<path d="M362.9,108.8h-14.5V88.9h2.7v17.5h11.7L362.9,108.8L362.9,108.8z"/>
		<path d="M380.6,108.8h-14.4V88.9h2.7v17.5h11.7L380.6,108.8L380.6,108.8z"/>
		<path d="M386.7,91.2v6.2h11.8v2.3h-11.8v6.8h12.5v2.3H384V88.9h15v2.3L386.7,91.2L386.7,91.2z"/>
		<path d="M406,108.8h-2.5V88.9h3.3l11,14.7c0.6,0.9,1,1.6,1.3,2.3h0.1c0-0.5,0-1.3,0-2.5V88.9h2.5v19.9h-3.2l-11.2-14.9
			c-0.6-0.9-1-1.6-1.3-2.2h-0.1c0,0.5,0,1.3,0,2.4L406,108.8L406,108.8z"/>
	</g>
	<g>
		<defs>
			<rect id="SVGID_19_" x="8.8" y="10" width="457.2" height="134.3"/>
		</defs>
		<clipPath id="SVGID_2_">
			<use xlink:href="#SVGID_19_"  style="overflow:visible;"/>
		</clipPath>
	</g>
	<rect x="8.8" y="10" class="st2" width="457.2" height="134.3"/>
	<rect x="8.8" y="10" class="st2" width="457.2" height="134.3"/>
	<rect x="8.8" y="10" class="st2" width="457.2" height="134.3"/>
	<rect x="8.8" y="10" class="st2" width="457.2" height="134.3"/>
	<path d="M8.8,10V130h486.5V10H8.8z M493.3,69H202.7V12h290.6V69z M200.7,12v57H10.8V12H200.7z M10.8,128V71h482.5v57H10.8z"/>
</g>
</svg>
